<svg width="33" height="33" viewBox="0 0 33 33" fill="none" xmlns="http://www.w3.org/2000/svg">
<path d="M26.2969 5.15625C26.0394 5.15625 25.7871 5.17727 25.5408 5.21781C24.923 3.38025 23.1838 2.05252 21.1406 2.05252C20.7245 2.05252 20.3208 2.10766 19.9366 2.21088C19.1168 0.884942 17.6537 0 15.9844 0C14.315 0 12.8455 0.888809 12.027 2.21977C11.6467 2.11729 11.2471 2.0625 10.8346 2.0625C8.27578 2.0625 6.18814 4.14434 6.18814 6.70312V14.5406C5.85041 14.4762 5.50494 14.4375 5.15689 14.4375C5.15673 14.4375 5.15706 14.4375 5.15689 14.4375C2.34803 14.4375 0 16.7063 0 19.6002C0 20.9079 0.487137 22.1474 1.38316 23.1097L6.61998 28.7326C9.1459 31.4467 12.723 33 16.4291 33H18.5612C25.3881 33 30.9375 27.4506 30.9375 20.625V9.79688C30.9375 7.23809 28.8557 5.15625 26.2969 5.15625ZM27.8438 20.625C27.8438 25.7432 23.6807 29.9062 18.6205 29.9062H16.4291C13.5667 29.9062 10.8326 28.7164 8.88164 26.6217L3.74086 21.1026C3.34112 20.6734 3.13461 20.11 3.13461 19.6137C3.13461 18.1854 4.32893 17.5899 5.15522 17.5899C5.70694 17.5899 6.25737 17.8101 6.66471 18.246L8.3869 20.0952C8.49492 20.1545 8.63027 20.1996 8.75918 20.1996C9.02382 20.1996 9.27893 19.9952 9.27893 19.683V6.70312C9.27893 5.84912 9.9718 5.15625 10.7678 5.15625C11.6218 5.15625 12.2567 5.84912 12.2567 6.70312V16.5C12.375 17.0672 12.8391 17.5312 13.4062 17.5312C13.9734 17.5312 14.3795 17.0696 14.3795 16.558L14.4375 4.64062C14.4375 3.78662 15.1304 3.09375 15.9264 3.09375C16.7804 3.09375 17.4152 3.78662 17.4152 4.64062V16.5C17.5312 17.0672 17.9953 17.5312 18.5625 17.5312C19.1297 17.5312 19.5931 17.0695 19.5931 16.558L19.5936 6.74824C19.5936 5.89424 20.2865 5.20137 21.0825 5.20137C21.9365 5.20137 22.5713 5.89424 22.5713 6.74824V16.558C22.6875 17.0672 23.1516 17.5312 23.7188 17.5312C24.2859 17.5312 24.692 17.0696 24.692 16.558V9.79688C24.692 8.94287 25.3849 8.25 26.1809 8.25C27.0349 8.25 27.6697 8.94287 27.6697 9.79688V20.625H27.8438Z" fill="black"/>
</svg>
